<svg
  xmlns="http://www.w3.org/2000/svg"
  viewBox="0 0 24 24"
  role="img"
  fill="currentColor"
  fill-rule="evenodd"
>
  <title>LM Studio</title>
  <path d="M4 4.75A2.75 2.75 0 0 1 6.75 2h10.5A2.75 2.75 0 0 1 20 4.75v10.5A2.75 2.75 0 0 1 17.25 18H9.56l-3.78 3.78a.75.75 0 0 1-1.28-.53V18.4A2.75 2.75 0 0 1 4 15.25V4.75Zm3.5 2a.75.75 0 0 0-1.5 0v7.5c0 .414.336.75.75.75h4a.75.75 0 0 0 0-1.5H7.5V6.75Zm4.75 0a.75.75 0 0 0-1.28.53v7a.75.75 0 0 0 1.22.58L15 12.54l2.81 2.82a.75.75 0 1 0 1.06-1.06l-3.34-3.35 3.34-3.34a.75.75 0 1 0-1.06-1.06L15 9.36l-2.75-2.61Z" />
</svg>
